#N canvas 200 200 450 300 10;
#X obj 53 98 osc~ 440;
#X obj 53 137 phasor~;
#X obj 53 177 line~;
#X obj 53 218 *~;
#X obj 53 243 dac~;
#X connect 0 0 3 0;
#X connect 1 0 2 0;
#X connect 2 0 1 1;
#X connect 3 0 4 0;
#X connect 4 0 5 0;
#X connect 5 0 6 0;
#X connect 6 0 7 0;
#X connect 7 0 2 1;
#X connect 1 0 6 1;
#X msg 53 197 0.3;
#X msg 53 217 0.7;
#X obj 53 77 *~ 0.5;
#X connect 8 0 7 1;
#X connect 2 0 8 0;
